<svg width="27" height="27" viewBox="0 0 27 27" fill="none" xmlns="http://www.w3.org/2000/svg">
<rect width="26.5263" height="26.5263" rx="13.2632" fill="white"/>
<path fill-rule="evenodd" clip-rule="evenodd" d="M21.4465 13.4591C21.4465 12.8478 21.3917 12.26 21.2898 11.6957H13.1703V15.0305H17.81C17.6102 16.1081 17.0028 17.0211 16.0897 17.6324V19.7955H18.8759C20.506 18.2947 21.4465 16.0846 21.4465 13.4591Z" fill="#4285F4"/>
<path fill-rule="evenodd" clip-rule="evenodd" d="M13.1703 21.8842C15.498 21.8842 17.4495 21.1122 18.8759 19.7955L16.0897 17.6324C15.3178 18.1497 14.3303 18.4553 13.1703 18.4553C10.9249 18.4553 9.02439 16.9388 8.34646 14.9011H5.46625V17.1348C6.8848 19.9523 9.80028 21.8842 13.1703 21.8842Z" fill="#34A853"/>
<path fill-rule="evenodd" clip-rule="evenodd" d="M8.34644 14.9011C8.17402 14.3839 8.07606 13.8313 8.07606 13.2631C8.07606 12.6949 8.17402 12.1424 8.34644 11.6251V9.39148H5.46623C4.88235 10.5553 4.54926 11.872 4.54926 13.2631C4.54926 14.6542 4.88235 15.9709 5.46623 17.1348L8.34644 14.9011Z" fill="#FBBC05"/>
<path fill-rule="evenodd" clip-rule="evenodd" d="M13.1703 8.07092C14.4361 8.07092 15.5725 8.50589 16.4659 9.36016L18.9386 6.88748C17.4456 5.49636 15.4941 4.64209 13.1703 4.64209C9.80028 4.64209 6.8848 6.57399 5.46625 9.39151L8.34646 11.6251C9.02439 9.58744 10.9249 8.07092 13.1703 8.07092Z" fill="#EA4335"/>
</svg>
