<svg width="50" height="50" viewBox="0 0 50 50" fill="none" xmlns="http://www.w3.org/2000/svg">
<g clip-path="url(#clip0_2_210)">
<path d="M48.9039 22.6164C48.5625 22.1641 48.2094 21.6961 48.1531 21.3328C48.0922 20.9461 48.2875 20.3781 48.4766 19.8297C48.7516 19.0344 49.0617 18.1328 48.7828 17.2734C48.4992 16.3977 47.7086 15.8453 47.0109 15.3578C46.5422 15.0305 46.0586 14.6922 45.8875 14.3578C45.7125 14.0156 45.7227 13.4187 45.732 12.8422C45.7461 11.9969 45.7617 11.0398 45.2266 10.3039C44.6891 9.56484 43.7703 9.28438 42.9602 9.0375C42.4109 8.87031 41.8422 8.69609 41.5742 8.42813C41.3055 8.15938 41.132 7.59062 40.9648 7.04141C40.718 6.23125 40.4375 5.3125 39.6977 4.775C38.9625 4.23984 38.0047 4.25469 37.1602 4.26953C36.5836 4.28047 35.9859 4.28906 35.6445 4.11406C35.3102 3.94375 34.9719 3.45938 34.6445 2.99063C34.1578 2.29297 33.6055 1.50312 32.7297 1.21875C31.8695 0.939844 30.9664 1.25 30.1703 1.52344C29.6219 1.7125 29.0523 1.90703 28.6672 1.84766C28.3039 1.79062 27.8359 1.4375 27.3828 1.09688C26.7016 0.582813 25.9281 0 25 0C24.0719 0 23.2984 0.582813 22.6164 1.09688C22.1641 1.43828 21.6961 1.79062 21.3328 1.84766C20.9477 1.90937 20.3789 1.7125 19.8297 1.52344C19.0336 1.24922 18.132 0.939062 17.2734 1.21719C16.3977 1.50156 15.8453 2.29141 15.3578 2.98906C15.0305 3.45703 14.6922 3.94141 14.3578 4.11172C14.0156 4.28672 13.418 4.27578 12.8422 4.26719C11.9969 4.25078 11.0398 4.23672 10.3039 4.77266C9.56484 5.31016 9.28438 6.22891 9.0375 7.03906C8.87031 7.58906 8.69609 8.15703 8.42813 8.42578C8.15938 8.69453 7.59063 8.86797 7.04063 9.03594C6.23047 9.28281 5.3125 9.56328 4.77422 10.3023C4.23906 11.0375 4.25469 11.9953 4.26875 12.8406C4.27813 13.418 4.2875 14.0141 4.11328 14.357C3.94297 14.6906 3.45859 15.0289 2.99063 15.3562C2.29297 15.8438 1.50313 16.3961 1.21797 17.2719C0.939063 18.132 1.25 19.0336 1.52422 19.8297C1.71328 20.3789 1.90937 20.9461 1.84844 21.3328C1.79141 21.6961 1.43906 22.1641 1.09766 22.6164C0.582812 23.2984 0 24.0719 0 25C0 25.9281 0.582813 26.7016 1.09688 27.3836C1.43828 27.8359 1.79062 28.3047 1.84766 28.668L3.39141 28.425C3.27422 27.6758 2.80156 27.0492 2.34453 26.443C1.96016 25.9328 1.5625 25.4055 1.5625 25C1.5625 24.5945 1.96016 24.0672 2.34453 23.557C2.80156 22.9508 3.27344 22.3242 3.39141 21.575C3.5125 20.8047 3.25234 20.05 3.00078 19.3203C2.79688 18.7289 2.58594 18.1164 2.70391 17.7547C2.82656 17.3773 3.36484 17.0016 3.88516 16.6375C4.51016 16.2008 5.15703 15.7492 5.50469 15.068C5.85625 14.3789 5.84375 13.5844 5.83047 12.8156C5.82031 12.1859 5.81016 11.5359 6.0375 11.2227C6.26797 10.9062 6.89219 10.7156 7.49687 10.5312C8.22969 10.307 8.98828 10.0758 9.53281 9.53125C10.0773 8.98672 10.3086 8.22891 10.532 7.49609C10.7164 6.89219 10.9062 6.26719 11.2234 6.03672C11.5367 5.80859 12.1875 5.81875 12.8164 5.82969C13.5852 5.84219 14.3789 5.85547 15.0688 5.50391C15.75 5.15625 16.2016 4.51016 16.6391 3.88438C17.0023 3.36406 17.3789 2.82656 17.7563 2.70391C18.1172 2.58516 18.7297 2.79766 19.3211 3.00078C20.0516 3.25234 20.8055 3.51172 21.5758 3.39141C22.3242 3.27422 22.9516 2.80156 23.5578 2.34453C24.0672 1.96016 24.5945 1.5625 25 1.5625C25.4055 1.5625 25.9328 1.96016 26.443 2.34453C27.0492 2.80156 27.6758 3.27344 28.425 3.39141C29.1937 3.51016 29.95 3.25234 30.6797 3.00078C31.2719 2.79688 31.8828 2.58516 32.2461 2.70391C32.6227 2.82656 32.9992 3.36406 33.3633 3.88438C33.8 4.50938 34.2523 5.15625 34.9328 5.50391C35.6219 5.85547 36.4195 5.84453 37.1852 5.82969C37.8148 5.82031 38.4656 5.80859 38.7789 6.03672C39.0953 6.26719 39.2852 6.89141 39.4703 7.49609C39.6937 8.22891 39.925 8.9875 40.4695 9.53203C41.0133 10.0766 41.7719 10.3078 42.5047 10.5312C43.1078 10.7156 43.7328 10.9062 43.9633 11.2227C44.1914 11.5359 44.1805 12.1859 44.1703 12.8156C44.1578 13.5844 44.1453 14.3789 44.4969 15.068C44.8445 15.7492 45.4906 16.2008 46.1156 16.6375C46.6359 17.0016 47.1734 17.3773 47.2969 17.7555C47.4141 18.1172 47.2039 18.7289 47 19.3203C46.7484 20.05 46.4891 20.8047 46.6094 21.575C46.7273 22.3234 47.2 22.9508 47.6562 23.5562C48.0398 24.0672 48.4375 24.5945 48.4375 25C48.4375 25.4055 48.0398 25.9328 47.6555 26.4438C47.1992 27.0492 46.7273 27.6758 46.6086 28.425L48.1531 28.668C48.2094 28.3047 48.5625 27.8367 48.9039 27.3836C49.4172 26.7016 50 25.9281 50 25C50 24.0719 49.4172 23.2984 48.9039 22.6164ZM42.5031 39.4695C41.7703 39.693 41.0117 39.9242 40.468 40.4688C39.9234 41.0125 39.6922 41.7711 39.468 42.5039C39.2844 43.1078 39.0938 43.732 38.7766 43.9625C38.4641 44.1898 37.8094 44.1789 37.1844 44.1695C36.4156 44.157 35.6219 44.1445 34.9313 44.4961C34.2508 44.8438 33.7992 45.4898 33.3625 46.1148C32.9984 46.6352 32.6227 47.1727 32.2445 47.2961C31.882 47.4148 31.2711 47.2039 30.6789 46.9992C29.9492 46.7484 29.1938 46.493 28.4242 46.6086C27.675 46.7266 27.0484 47.1992 26.443 47.6555C25.9328 48.0398 25.4055 48.4375 25 48.4375C24.5945 48.4375 24.0672 48.0398 23.5562 47.6555C22.9508 47.1992 22.3234 46.7273 21.575 46.6086C20.807 46.493 20.05 46.7484 19.3203 46.9992C18.7289 47.2031 18.118 47.4148 17.7547 47.2961C17.3773 47.1734 17.0008 46.6352 16.6375 46.1148C16.2 45.4891 15.7484 44.843 15.068 44.4953C14.3789 44.1437 13.5836 44.1562 12.8164 44.1695C12.1867 44.1773 11.5359 44.1906 11.2227 43.9617C10.9062 43.7313 10.7156 43.107 10.5312 42.5031C10.307 41.7703 10.0758 41.0117 9.53125 40.468C8.98672 39.9234 8.22891 39.6922 7.49531 39.468C6.89141 39.2844 6.26641 39.0938 6.03672 38.7766L4.77344 39.6969C5.31094 40.4352 6.22969 40.7156 7.03906 40.9625C7.58906 41.1305 8.15781 41.3039 8.42656 41.5727C8.69531 41.8414 8.86875 42.4094 9.03672 42.9594C9.28359 43.7695 9.56406 44.6875 10.3031 45.225C11.0383 45.7617 11.9961 45.7438 12.8422 45.7305C13.418 45.7242 14.0156 45.7117 14.3578 45.8859C14.6914 46.0563 15.0297 46.5406 15.357 47.0094C15.8445 47.707 16.3969 48.4969 17.2727 48.782C18.1312 49.0586 19.0336 48.7508 19.8297 48.4758C20.3789 48.2875 20.9477 48.0859 21.3328 48.1523C21.6961 48.2086 22.1641 48.5617 22.6164 48.9031C23.2984 49.4172 24.0719 50 25 50C25.9281 50 26.7016 49.4172 27.3836 48.9039C27.8359 48.5625 28.3047 48.2094 28.668 48.1531C29.0492 48.0859 29.6219 48.2875 30.1711 48.4766C30.968 48.7516 31.8703 49.0625 32.7273 48.7828C33.6031 48.4992 34.1555 47.7078 34.643 47.0102C34.9703 46.5422 35.3094 46.0578 35.6422 45.8875C35.9844 45.7117 36.5797 45.7211 37.1578 45.732C37.9977 45.7453 38.9594 45.7617 39.6961 45.2266C40.4344 44.6891 40.7148 43.7711 40.9617 42.9609C41.1297 42.4117 41.3031 41.8422 41.5719 41.5742C41.8406 41.3055 42.4086 41.132 42.9578 40.9648C43.768 40.718 44.6867 40.4367 45.2242 39.6977L43.9609 38.7789C43.732 39.0945 43.107 39.2844 42.5031 39.4695Z" fill="#EE696A"/>
<path d="M6.25 35.9375V34.375C6.25 33.943 5.9 33.5938 5.46875 33.5938H3.90625V35.1562H4.6875V35.9375C4.6875 36.3688 4.33672 36.7188 3.90625 36.7188C3.47578 36.7188 3.125 36.3688 3.125 35.9375V31.25C3.125 30.8188 3.47578 30.4688 3.90625 30.4688C4.33672 30.4688 4.6875 30.8188 4.6875 31.25V32.0312H6.25V31.25C6.25 29.9578 5.19844 28.9062 3.90625 28.9062C2.61406 28.9062 1.5625 29.9578 1.5625 31.25V35.9375C1.5625 37.2297 2.61406 38.2812 3.90625 38.2812C5.19844 38.2812 6.25 37.2297 6.25 35.9375ZM7.03125 28.9062V35.9375C7.03125 37.2297 8.08281 38.2812 9.375 38.2812C10.6672 38.2812 11.7188 37.2297 11.7188 35.9375V28.9062H10.1562V35.9375C10.1562 36.3688 9.80547 36.7188 9.375 36.7188C8.94453 36.7188 8.59375 36.3688 8.59375 35.9375V28.9062H7.03125ZM12.5 31.25V38.2812H14.0625V36.7188H15.625V38.2812H17.1875V31.25C17.1875 29.9578 16.1359 28.9062 14.8438 28.9062C13.5516 28.9062 12.5 29.9578 12.5 31.25ZM15.625 31.25V35.1562H14.0625V31.25C14.0625 30.8188 14.4133 30.4688 14.8438 30.4688C15.2742 30.4688 15.625 30.8188 15.625 31.25ZM23.4375 31.25V38.2812H25V36.7188H26.5625V38.2812H28.125V31.25C28.125 29.9578 27.0734 28.9062 25.7812 28.9062C24.4891 28.9062 23.4375 29.9578 23.4375 31.25ZM25.7812 30.4688C26.2125 30.4688 26.5625 30.8188 26.5625 31.25V35.1562H25V31.25C25 30.8188 25.3508 30.4688 25.7812 30.4688ZM17.9688 29.6875V33.5906C17.9688 33.593 17.9688 33.5945 17.9688 33.5961V38.2812H19.5312V35.8211L21.2648 37.9883C21.4133 38.1734 21.6375 38.2812 21.875 38.2812H22.6562V36.7188H22.25L20.3484 34.3414C21.6547 34.1359 22.6562 33.0031 22.6562 31.6406C22.6562 30.1328 21.4297 28.9062 19.9219 28.9062H18.75C18.3188 28.9062 17.9688 29.2555 17.9688 29.6875ZM19.5312 30.4688H19.9219C20.568 30.4688 21.0938 30.9945 21.0938 31.6406C21.0938 32.2867 20.568 32.8125 19.9219 32.8125H19.5312V30.4688ZM32.0312 33.4437L30.4133 29.3977C30.2734 29.0484 29.9016 28.8539 29.5398 28.9203C29.1719 28.9906 28.9062 29.3133 28.9062 29.6875V38.2812H30.4688V33.7438L32.0867 37.7898C32.2078 38.0914 32.4984 38.2812 32.8117 38.2812C32.8609 38.2812 32.9109 38.2766 32.9602 38.2672C33.3281 38.1969 33.5938 37.8742 33.5938 37.5V28.9062H32.0312V33.4437ZM37.5 30.4688H39.0625V28.9062H34.375V30.4688H35.9375V38.2812H37.5V30.4688ZM43.75 30.4688V28.9062H40.625C40.193 28.9062 39.8438 29.2555 39.8438 29.6875V37.5C39.8438 37.932 40.193 38.2812 40.625 38.2812H43.75V36.7188H41.4062V34.375H43.75V32.8125H41.4062V30.4688H43.75ZM44.5312 29.6875V37.5C44.5312 37.932 44.8805 38.2812 45.3125 38.2812H48.4375V36.7188H46.0938V34.375H48.4375V32.8125H46.0938V30.4688H48.4375V28.9062H45.3125C44.8805 28.9062 44.5312 29.2555 44.5312 29.6875Z" fill="#EE696A"/>
<path d="M44.5312 25C44.5312 14.2305 35.7695 5.46875 25 5.46875C14.2305 5.46875 5.46875 14.2305 5.46875 25C5.46875 25.7867 5.52188 26.6078 5.62578 27.4406L7.17578 27.2469C7.07969 26.4781 7.03125 25.7219 7.03125 25C7.03125 15.0922 15.0922 7.03125 25 7.03125C34.9086 7.03125 42.9688 15.0922 42.9688 25C42.9688 25.7219 42.9203 26.4781 42.8234 27.2469L44.3734 27.4406C44.4789 26.6078 44.5312 25.7867 44.5312 25ZM36.9273 40.4617L35.9719 39.2258C32.8008 41.6742 29.0078 42.9688 25 42.9688C20.993 42.9688 17.1992 41.6742 14.0289 39.2258L13.0734 40.4617C16.5203 43.1242 20.6438 44.5312 25 44.5312C29.3563 44.5312 33.4805 43.1242 36.9273 40.4617Z" fill="#EE696A"/>
<path d="M17.1875 16.4062H15.625V17.9688H16.4062V25.7812H17.9688V17.1875C17.9688 16.7563 17.6187 16.4062 17.1875 16.4062ZM21.4844 16.4062C19.9766 16.4062 18.75 17.6328 18.75 19.1406V23.0469C18.75 24.5547 19.9766 25.7812 21.4844 25.7812C22.9922 25.7812 24.2188 24.5547 24.2188 23.0469V19.1406C24.2188 17.6328 22.9922 16.4062 21.4844 16.4062ZM22.6562 23.0469C22.6562 23.693 22.1305 24.2188 21.4844 24.2188C20.8383 24.2188 20.3125 23.693 20.3125 23.0469V19.1406C20.3125 18.4945 20.8383 17.9688 21.4844 17.9688C22.1305 17.9688 22.6562 18.4945 22.6562 19.1406V23.0469ZM27.7344 16.4062C26.2266 16.4062 25 17.6328 25 19.1406V23.0469C25 24.5547 26.2266 25.7812 27.7344 25.7812C29.2422 25.7812 30.4688 24.5547 30.4688 23.0469V19.1406C30.4688 17.6328 29.2422 16.4062 27.7344 16.4062ZM28.9062 23.0469C28.9062 23.693 28.3805 24.2188 27.7344 24.2188C27.0883 24.2188 26.5625 23.693 26.5625 23.0469V19.1406C26.5625 18.4945 27.0883 17.9688 27.7344 17.9688C28.3805 17.9688 28.9062 18.4945 28.9062 19.1406V23.0469Z" fill="#EE696A"/>
<path d="M32.8938 24.6508L36.0188 18.4008L37.4164 19.0992L34.2914 25.3492L32.8938 24.6508Z" fill="#EE696A"/>
<path d="M33.5938 19.5312H32.0312V21.0938H33.5938V19.5312Z" fill="#EE696A"/>
<path d="M38.2812 22.6562H36.7188V24.2188H38.2812V22.6562Z" fill="#EE696A"/>
</g>
<defs>
<clipPath id="clip0_2_210">
<rect width="50" height="50" fill="white"/>
</clipPath>
</defs>
</svg>
