<svg width="28" height="27" viewBox="0 0 28 27" fill="none" xmlns="http://www.w3.org/2000/svg">
<rect x="0.582031" width="26.5263" height="26.5263" rx="13.2632" fill="#0A66C2"/>
<path d="M20.0629 5.96838H7.62744C7.34181 5.96838 7.06787 6.08185 6.8659 6.28383C6.66392 6.4858 6.55045 6.75974 6.55045 7.04537V19.4809C6.55045 19.7665 6.66392 20.0404 6.8659 20.2424C7.06787 20.4444 7.34181 20.5579 7.62744 20.5579H20.0629C20.3486 20.5579 20.6225 20.4444 20.8245 20.2424C21.0265 20.0404 21.1399 19.7665 21.1399 19.4809V7.04537C21.1399 6.75974 21.0265 6.4858 20.8245 6.28383C20.6225 6.08185 20.3486 5.96838 20.0629 5.96838ZM10.8989 18.3968H8.70544V11.4293H10.8989V18.3968ZM9.80066 10.4638C9.55185 10.4624 9.30903 10.3873 9.10284 10.248C8.89666 10.1087 8.73635 9.91151 8.64214 9.68122C8.54794 9.45092 8.52407 9.19788 8.57355 8.95403C8.62302 8.71018 8.74362 8.48645 8.92012 8.31108C9.09663 8.1357 9.32112 8.01654 9.56529 7.96864C9.80945 7.92073 10.0623 7.94623 10.292 8.0419C10.5217 8.13758 10.7179 8.29915 10.8558 8.50623C10.9938 8.71331 11.0673 8.95661 11.0671 9.20542C11.0695 9.37201 11.0382 9.53736 10.9753 9.69162C10.9124 9.84588 10.8191 9.9859 10.7009 10.1033C10.5827 10.2207 10.4421 10.3132 10.2874 10.3751C10.1328 10.437 9.96723 10.4672 9.80066 10.4638ZM18.9839 18.4029H16.7915V14.5964C16.7915 13.4739 16.3143 13.1274 15.6983 13.1274C15.0478 13.1274 14.4095 13.6177 14.4095 14.6248V18.4029H12.216V11.4344H14.3254V12.3999H14.3538C14.5655 11.9713 15.3072 11.2388 16.4389 11.2388C17.6628 11.2388 18.9849 11.9653 18.9849 14.0929L18.9839 18.4029Z" fill="white"/>
</svg>
