<svg width="50" height="50" viewBox="0 0 50 50" fill="none" xmlns="http://www.w3.org/2000/svg">
<g clip-path="url(#clip0_2_231)">
<path d="M31.1015 28.4557C31.1015 28.903 31.4642 29.2657 31.9115 29.2657C32.3588 29.2657 32.7214 28.903 32.7214 28.4557C32.7214 26.1728 30.584 24.2838 27.5378 23.601V22.4082C27.5378 21.9609 27.1752 21.5983 26.7279 21.5983C26.2806 21.5983 25.9179 21.9609 25.9179 22.4082V23.3618C25.6172 23.3391 25.3113 23.3261 25 23.3261C24.6887 23.3261 24.3828 23.3391 24.0821 23.3618V22.4082C24.0821 21.9609 23.7194 21.5983 23.2721 21.5983C22.8248 21.5983 22.4622 21.9609 22.4622 22.4082V23.601C19.416 24.2839 17.2786 26.1728 17.2786 28.4557C17.2786 30.7387 19.416 32.6276 22.4622 33.3105V40.2738C20.3802 39.708 18.8985 38.4801 18.8985 37.095C18.8985 36.6477 18.5359 36.2851 18.0886 36.2851C17.6413 36.2851 17.2786 36.6477 17.2786 37.095C17.2786 39.378 19.416 41.2669 22.4622 41.9498V43.1425C22.4622 43.5898 22.8248 43.9525 23.2721 43.9525C23.7194 43.9525 24.0821 43.5898 24.0821 43.1425V42.189C24.3828 42.2117 24.6887 42.2246 25 42.2246C25.3113 42.2246 25.6172 42.2117 25.9179 42.189V43.1425C25.9179 43.5898 26.2806 43.9525 26.7279 43.9525C27.1752 43.9525 27.5378 43.5898 27.5378 43.1425V41.9498C30.584 41.2668 32.7214 39.378 32.7214 37.095C32.7214 34.8121 30.584 32.9231 27.5378 32.2403V25.277C29.6198 25.8428 31.1015 27.0706 31.1015 28.4557ZM18.8985 28.4557C18.8985 27.0706 20.3802 25.8428 22.4622 25.277V31.6344C20.3802 31.0687 18.8985 29.8408 18.8985 28.4557ZM25 40.6047C24.6889 40.6047 24.3823 40.5905 24.0821 40.5631V33.5497C24.3828 33.5724 24.6887 33.5853 25 33.5853C25.3111 33.5853 25.6177 33.5996 25.9179 33.627V40.5632C25.6177 40.5905 25.3111 40.6047 25 40.6047ZM31.1015 37.095C31.1015 38.4801 29.6198 39.708 27.5378 40.2738V33.9163C29.6198 34.4821 31.1015 35.7099 31.1015 37.095ZM25.9179 32.0011C25.6172 31.9784 25.3113 31.9654 25 31.9654C24.6889 31.9654 24.3823 31.9512 24.0821 31.9238V24.9876C24.3823 24.9603 24.6889 24.9459 25 24.9459C25.3111 24.9459 25.6177 24.9601 25.9179 24.9876V32.0011Z" fill="#EE696A"/>
<path d="M30.3221 12.8945C30.7387 12.4422 30.9935 11.839 30.9935 11.1771C30.9935 9.973 30.1502 8.96274 29.0234 8.7041C30.2328 7.6068 30.9935 6.02343 30.9935 4.26566V1.67387C30.9935 0.750864 30.2427 0 29.3197 0H20.6804C19.7573 0 19.0065 0.750864 19.0065 1.67387V4.26566C19.0065 6.02343 19.7672 7.6068 20.9766 8.7041C19.8498 8.96274 19.0065 9.973 19.0065 11.1771C19.0065 11.839 19.2613 12.4422 19.6779 12.8945C12.2931 15.1724 6.91145 22.061 6.91145 30.1836V42.2786C6.91145 46.5362 10.3753 50 14.6328 50H35.3672C39.6247 50 43.0886 46.5362 43.0886 42.2786V30.1836C43.0886 22.061 37.7069 15.1724 30.3221 12.8945ZM20.6264 4.26566V1.67387C20.6264 1.64406 20.6505 1.61987 20.6804 1.61987H29.3197C29.3495 1.61987 29.3737 1.64406 29.3737 1.67387V4.26566C29.3737 6.40043 27.8358 8.18186 25.8099 8.56285V5.99352C25.8099 5.54622 25.4473 5.18359 25 5.18359C24.5527 5.18359 24.1901 5.54622 24.1901 5.99352V8.56285C22.1643 8.18186 20.6264 6.40043 20.6264 4.26566ZM21.5443 12.095C21.0381 12.095 20.6264 11.6833 20.6264 11.1771C20.6264 10.6709 21.0381 10.2592 21.5443 10.2592H28.4557C28.9619 10.2592 29.3737 10.6709 29.3737 11.1771C29.3737 11.6833 28.9619 12.095 28.4557 12.095H21.5443ZM41.4687 42.2786C41.4687 45.643 38.7315 48.3801 35.3672 48.3801H14.6328C11.2685 48.3801 8.53132 45.643 8.53132 42.2786V30.1836C8.53132 21.3743 15.4839 14.1587 24.1901 13.735V16.3607C24.1901 16.808 24.5527 17.1706 25 17.1706C25.4473 17.1706 25.8099 16.808 25.8099 16.3607V13.735C34.5161 14.1587 41.4687 21.3743 41.4687 30.1836V42.2786Z" fill="#EE696A"/>
</g>
<defs>
<clipPath id="clip0_2_231">
<rect width="50" height="50" fill="white"/>
</clipPath>
</defs>
</svg>
