<svg width="27" height="27" viewBox="0 0 27 27" fill="none" xmlns="http://www.w3.org/2000/svg">
<rect x="0.0546875" width="26.5263" height="26.5263" rx="13.2632" fill="#BD081C"/>
<path d="M13.3146 5.3053C8.91498 5.3053 5.35995 8.86687 5.35995 13.2599C5.35995 16.6316 7.45499 19.5123 10.4142 20.6711C10.3422 20.0426 10.2833 19.0737 10.4404 18.3862C10.5845 17.7643 11.3701 14.4318 11.3701 14.4318C11.3701 14.4318 11.1344 13.9539 11.1344 13.2534C11.1344 12.1469 11.776 11.322 12.5748 11.322C13.2556 11.322 13.583 11.8327 13.583 12.4415C13.583 13.1224 13.1509 14.1438 12.9217 15.0931C12.7319 15.8853 13.3211 16.5334 14.1002 16.5334C15.5144 16.5334 16.6012 15.0407 16.6012 12.8933C16.6012 10.9881 15.2328 9.65906 13.2753 9.65906C11.01 9.65906 9.68098 11.3547 9.68098 13.1093C9.68098 13.7902 9.94285 14.5235 10.2702 14.9229C10.3357 15.0014 10.3422 15.0734 10.3226 15.152C10.2637 15.4008 10.1262 15.9442 10.1 16.0555C10.0673 16.1995 9.98213 16.2323 9.83156 16.1602C8.8495 15.6889 8.23409 14.2354 8.23409 13.0701C8.23409 10.5626 10.0542 8.25799 13.4913 8.25799C16.2476 8.25799 18.3951 10.2221 18.3951 12.854C18.3951 15.5972 16.6666 17.8036 14.2704 17.8036C13.4651 17.8036 12.7057 17.3845 12.4504 16.887C12.4504 16.887 12.051 18.4059 11.9528 18.779C11.776 19.473 11.2915 20.3372 10.9642 20.8675C11.7106 21.0967 12.4962 21.2211 13.3211 21.2211C17.7142 21.2211 21.2757 17.6595 21.2757 13.2665C21.2692 8.86687 17.7076 5.3053 13.3146 5.3053Z" fill="white"/>
</svg>
