<svg width="50" height="50" viewBox="0 0 50 50" fill="none" xmlns="http://www.w3.org/2000/svg">
<path d="M47.9167 37.5V6.25004H35.3781C32.6715 3.67537 29.0216 2.08337 25 2.08337C20.9784 2.08337 17.3287 3.67537 14.6221 6.25004H2.08333V37.5H0V43.1397L4.77702 47.9167H45.223L50 43.1397V37.5H47.9167ZM4.16667 8.33337H12.8011C10.9964 10.8192 9.91872 13.8653 9.91872 17.1652V17.5865C8.34056 18.608 7.29167 20.3805 7.29167 22.3959C7.29167 25.5544 9.86176 28.125 13.0208 28.125H14.5833V16.6667H13.0208C12.6799 16.6667 12.3474 16.7022 12.0226 16.7596C12.2395 9.78062 17.9699 4.16671 25 4.16671C32.0306 4.16671 37.761 9.78072 37.9779 16.7597C37.6529 16.7022 37.3204 16.6667 36.9792 16.6667H35.4167V28.125H36.9792C37.5214 28.125 38.0441 28.0443 38.5417 27.9029V31.25H31.058C30.6266 30.0401 29.4812 29.1667 28.125 29.1667H25C23.2768 29.1667 21.875 30.5685 21.875 32.2917C21.875 34.0149 23.2768 35.4167 25 35.4167H28.125C29.4812 35.4167 30.6267 34.5433 31.058 33.3334H40.625V26.8117C41.8967 25.7598 42.7083 24.1708 42.7083 22.3959C42.7083 20.3806 41.6596 18.6083 40.0818 17.5867V17.1652C40.0818 13.8653 39.0041 10.8192 37.1993 8.33337H45.8333V37.5H4.16667V8.33337ZM12.5 18.7867V26.0051C10.7356 25.7508 9.375 24.229 9.375 22.3959C9.375 20.5628 10.7356 19.041 12.5 18.7867ZM40.625 22.3959C40.625 24.229 39.2644 25.7508 37.5 26.0051V18.7867C39.2644 19.041 40.625 20.5628 40.625 22.3959ZM29.1667 32.2917C29.1667 32.8665 28.6992 33.3334 28.125 33.3334H25C24.4258 33.3334 23.9583 32.8665 23.9583 32.2917C23.9583 31.717 24.4258 31.25 25 31.25H28.125C28.6992 31.25 29.1667 31.717 29.1667 32.2917ZM47.9167 42.2771L44.3604 45.8334H5.63965L2.08333 42.2771V39.5834H47.9167V42.2771Z" fill="#EE696A"/>
<path d="M26.0417 41.6666H23.9583V43.75H26.0417V41.6666Z" fill="#EE696A"/>
<path d="M21.875 41.6666H19.7917V43.75H21.875V41.6666Z" fill="#EE696A"/>
<path d="M30.2083 41.6666H28.125V43.75H30.2083V41.6666Z" fill="#EE696A"/>
</svg>
