<svg width="28" height="27" viewBox="0 0 28 27" fill="none" xmlns="http://www.w3.org/2000/svg">
<rect x="0.527344" width="26.5263" height="26.5263" rx="13.2632" fill="#1D9BF0"/>
<path d="M11.3633 20.2595C17.2456 20.2595 20.4619 15.3852 20.4619 11.1609C20.4619 11.0217 20.4619 10.8824 20.4552 10.7498C21.0786 10.2988 21.6224 9.73514 22.0535 9.09188C21.4831 9.34388 20.8664 9.5163 20.2165 9.59588C20.8797 9.19798 21.3837 8.57461 21.6224 7.82524C21.0057 8.18998 20.3226 8.45524 19.5931 8.60114C19.0096 7.97777 18.1806 7.59314 17.2588 7.59314C15.4948 7.59314 14.0624 9.02556 14.0624 10.7896C14.0624 11.0416 14.0889 11.2869 14.1486 11.519C11.4893 11.3864 9.13514 10.1131 7.55682 8.17672C7.28492 8.64756 7.12577 9.19798 7.12577 9.78156C7.12577 10.889 7.68945 11.8705 8.55156 12.4408C8.02766 12.4276 7.53692 12.2817 7.10587 12.0429C7.10587 12.0562 7.10587 12.0695 7.10587 12.0827C7.10587 13.6345 8.20671 14.921 9.67229 15.2195C9.40703 15.2924 9.12187 15.3322 8.83008 15.3322C8.6245 15.3322 8.42556 15.3123 8.22661 15.2725C8.63114 16.5458 9.81156 17.4676 11.2108 17.4941C10.1166 18.3496 8.73724 18.8602 7.2385 18.8602C6.97987 18.8602 6.72787 18.8469 6.47587 18.8138C7.87514 19.7289 9.55956 20.2595 11.3633 20.2595Z" fill="white"/>
</svg>
