<svg width="20" height="13" viewBox="0 0 20 13" fill="none" xmlns="http://www.w3.org/2000/svg">
<g clip-path="url(#clip0_2_127)">
<path d="M304.615 -146.25H-30.7692V37.9167H304.615V-146.25Z" fill="#D8D8D8"/>
<path d="M20 0H0V1.44083H20V0Z" fill="#DC4437"/>
<path d="M20 2.89258H0V4.33341H20V2.89258Z" fill="#DC4437"/>
<path d="M20 8.66675H0V10.1076H20V8.66675Z" fill="#DC4437"/>
<path d="M20 11.5591H0V12.9999H20V11.5591Z" fill="#DC4437"/>
<path d="M20 5.77417H0V7.215H20V5.77417Z" fill="#DC4437"/>
<path d="M20 1.44092H0V2.88175H20V1.44092Z" fill="white"/>
<path d="M20 4.33325H0V5.77409H20V4.33325Z" fill="white"/>
<path d="M20 10.1074H0V11.5483H20V10.1074Z" fill="white"/>
<path d="M20 7.22583H0V8.66666H20V7.22583Z" fill="white"/>
<path d="M7.76923 0H0V6.75358H7.76923V0Z" fill="#2A66B7"/>
<path d="M1.49688 0.405029L1.75215 0.90117L2.32929 0.982172L1.90754 1.37706L2.00743 1.92383L1.49688 1.66057L0.986327 1.92383L1.08622 1.37706L0.664459 0.982172L1.2416 0.90117L1.49688 0.405029Z" fill="white"/>
<path d="M3.77507 0.405029L4.03035 0.90117L4.60749 0.982172L4.19683 1.37706L4.28562 1.92383L3.77507 1.66057L3.26453 1.92383L3.35332 1.37706L2.94266 0.982172L3.5198 0.90117L3.77507 0.405029Z" fill="white"/>
<path d="M6.05031 0.405029L6.30559 0.90117L6.88273 0.982172L6.46097 1.37706L6.56086 1.92383L6.05031 1.66057L5.53976 1.92383L5.63965 1.37706L5.2179 0.982172L5.79504 0.90117L6.05031 0.405029Z" fill="white"/>
<path d="M2.66268 2.42993L2.91795 2.92607L3.4951 3.00707L3.08444 3.40196L3.17323 3.94873L2.66268 3.68547L2.15213 3.94873L2.24092 3.40196L1.83026 3.00707L2.4074 2.92607L2.66268 2.42993Z" fill="white"/>
<path d="M4.93792 2.42993L5.19319 2.92607L5.77033 3.00707L5.34858 3.40196L5.44847 3.94873L4.93792 3.68547L4.42737 3.94873L4.52726 3.40196L4.1055 3.00707L4.68264 2.92607L4.93792 2.42993Z" fill="white"/>
<path d="M1.49688 4.57666L1.75215 5.0728L2.32929 5.1538L1.90754 5.53856L2.00743 6.09546L1.49688 5.8322L0.986327 6.09546L1.08622 5.53856L0.664459 5.1538L1.2416 5.0728L1.49688 4.57666Z" fill="white"/>
<path d="M3.77507 4.57666L4.03035 5.0728L4.60749 5.1538L4.19683 5.53856L4.28562 6.09546L3.77507 5.8322L3.26453 6.09546L3.35332 5.53856L2.94266 5.1538L3.5198 5.0728L3.77507 4.57666Z" fill="white"/>
<path d="M6.05031 4.57666L6.30559 5.0728L6.88273 5.1538L6.46097 5.53856L6.56086 6.09546L6.05031 5.8322L5.53976 6.09546L5.63965 5.53856L5.2179 5.1538L5.79504 5.0728L6.05031 4.57666Z" fill="white"/>
</g>
<defs>
<clipPath id="clip0_2_127">
<rect width="20" height="13" fill="white"/>
</clipPath>
</defs>
</svg>
